<?xml version="1.0" standalone="no"?>
<!DOCTYPE svg PUBLIC "-//W3C//DTD SVG 20010904//EN"
 "http://www.w3.org/TR/2001/REC-SVG-20010904/DTD/svg10.dtd">
<svg version="1.0" xmlns="http://www.w3.org/2000/svg"
 width="1000.000000pt" height="1000.000000pt" viewBox="0 0 1000.000000 1000.000000"
 preserveAspectRatio="xMidYMid meet">
<metadata>
Created by potrace 1.14, written by Peter Selinger 2001-2017
</metadata>
<g transform="translate(0.000000,1000.000000) scale(0.100000,-0.100000)"
fill="#000000" stroke="none">
<path d="M5405 9890 c-8 -14 3 -30 21 -30 41 0 213 -134 306 -238 182 -202
322 -460 428 -787 43 -130 57 -181 75 -260 8 -38 19 -86 24 -105 57 -226 96
-652 88 -955 -10 -344 -29 -511 -93 -820 -115 -550 -375 -1038 -677 -1272 -90
-70 -177 -115 -282 -149 -58 -18 -107 -19 -1315 -19 l-1255 0 -3 1638 c-2
1446 -4 1637 -17 1637 -8 0 -15 -6 -15 -12 -1 -7 -23 -44 -50 -83 -166 -238
-342 -523 -386 -625 -6 -14 -19 -42 -28 -63 -9 -21 -16 -46 -16 -55 0 -10 -6
-26 -13 -37 -7 -11 -19 -40 -27 -65 -8 -25 -43 -106 -78 -180 -80 -169 -106
-231 -133 -317 -12 -37 -39 -120 -60 -183 -36 -109 -71 -251 -91 -369 -5 -30
-11 -58 -14 -63 -3 -4 -9 -29 -14 -56 -10 -53 -25 -119 -40 -172 -38 -137 -61
-264 -70 -380 -6 -74 -16 -198 -23 -275 -15 -175 -13 -1109 2 -1280 6 -66 18
-163 27 -215 8 -52 19 -129 24 -170 11 -88 32 -193 55 -270 24 -79 31 -105 58
-200 27 -93 63 -218 77 -265 5 -16 20 -70 34 -120 14 -49 40 -137 57 -195 17
-58 34 -119 39 -137 4 -17 27 -67 50 -110 24 -43 57 -105 75 -138 18 -33 45
-85 62 -115 17 -30 56 -104 88 -165 32 -60 61 -114 65 -120 4 -5 29 -50 55
-100 55 -102 275 -447 290 -455 7 -3 12 609 15 1815 l5 1820 1340 6 c1418 6
1373 5 1575 52 124 29 272 74 325 97 11 5 45 19 75 30 140 54 315 154 485 277
623 451 995 1174 997 1941 1 209 -27 438 -74 612 -11 41 -24 89 -28 105 -42
152 -118 332 -211 493 -217 376 -492 659 -864 889 -40 25 -141 71 -166 77 -14
3 -74 28 -133 56 -131 62 -156 67 -331 75 -77 3 -177 8 -222 11 -51 3 -84 1
-88 -6z"/>
<path d="M7690 8528 c-1 -7 -1 -809 0 -1783 0 -973 -3 -1775 -8 -1782 -5 -9
-326 -13 -1322 -15 -1440 -4 -1357 -1 -1620 -64 -203 -49 -316 -90 -540 -197
-106 -51 -337 -203 -440 -290 -319 -271 -560 -603 -703 -968 -69 -177 -99
-279 -136 -469 -20 -100 -41 -330 -41 -438 0 -156 33 -430 65 -547 8 -27 21
-77 31 -110 47 -172 140 -398 220 -532 158 -266 327 -471 534 -647 77 -66 205
-163 255 -193 84 -50 200 -116 250 -141 231 -116 610 -224 790 -224 47 -1 539
28 553 31 2 1 0 6 -3 11 -4 6 -70 10 -166 10 -247 0 -367 31 -524 137 -222
148 -414 405 -549 733 -26 63 -51 124 -56 135 -45 109 -150 496 -150 555 0 13
-4 37 -9 54 -11 35 -35 215 -51 381 -22 238 -6 757 30 969 6 34 15 90 21 126
62 395 229 841 420 1122 150 220 324 365 544 452 49 19 82 20 1319 23 1025 3
1271 1 1278 -9 4 -7 8 -778 7 -1713 0 -1121 3 -1700 10 -1700 5 0 56 63 112
140 90 123 126 186 289 510 103 204 206 415 230 470 23 55 50 118 60 140 10
22 29 65 43 95 38 86 84 208 107 290 12 41 30 100 40 130 9 30 25 82 35 115 9
33 27 92 39 130 45 140 58 196 76 330 5 39 11 77 14 85 3 8 10 44 16 80 6 36
17 103 25 150 8 47 19 119 25 160 14 104 28 735 19 845 -4 50 -13 182 -18 295
-6 113 -18 261 -27 330 -8 69 -19 160 -24 203 -5 44 -11 91 -14 105 -4 15 -10
68 -16 117 -20 184 -32 252 -55 325 -14 41 -36 116 -51 165 -15 50 -39 128
-54 175 -15 47 -33 105 -40 130 -7 25 -18 61 -25 80 -7 19 -20 60 -30 90 -18
58 -61 167 -102 260 -33 75 -49 113 -89 205 -9 22 -61 130 -115 240 -90 184
-113 220 -279 450 -100 138 -185 252 -191 253 -5 2 -9 -2 -9 -10z"/>
</g>
</svg>
