<?xml version="1.0" encoding="UTF-8" standalone="no"?>
<!-- Created with Inkscape (http://www.inkscape.org/) -->

<svg
   width="116.24968mm"
   height="36.572685mm"
   viewBox="0 0 116.24968 36.572685"
   version="1.1"
   id="svg24"
   inkscape:version="1.1.2 (b8e25be833, 2022-02-05)"
   sodipodi:docname="pruma-logo-white.svg"
   xmlns:inkscape="http://www.inkscape.org/namespaces/inkscape"
   xmlns:sodipodi="http://sodipodi.sourceforge.net/DTD/sodipodi-0.dtd"
   xmlns="http://www.w3.org/2000/svg"
   xmlns:svg="http://www.w3.org/2000/svg">
  <sodipodi:namedview
     id="namedview26"
     pagecolor="#505050"
     bordercolor="#eeeeee"
     borderopacity="1"
     inkscape:pageshadow="0"
     inkscape:pageopacity="0"
     inkscape:pagecheckerboard="0"
     inkscape:document-units="mm"
     showgrid="false"
     inkscape:zoom="1.4449635"
     inkscape:cx="258.83007"
     inkscape:cy="37.717216"
     inkscape:window-width="1920"
     inkscape:window-height="1000"
     inkscape:window-x="-9"
     inkscape:window-y="-9"
     inkscape:window-maximized="1"
     inkscape:current-layer="layer1"
     inkscape:lockguides="true"
     lock-margins="true"
     fit-margin-top="0.8"
     fit-margin-left="0.8"
     fit-margin-right="0.8"
     fit-margin-bottom="0.8" />
  <defs
     id="defs21" />
  <g
     inkscape:label="Camada 1"
     inkscape:groupmode="layer"
     id="layer1"
     transform="translate(-6.1458524,-1.525178)">
    <g
       id="g37665"
       transform="matrix(1.7916513,0,0,1.7916513,-92.113937,-132.94153)"
       style="display:inline;fill:#ffffff">
      <g
         aria-label="PRUMA"
         id="text3422"
         style="font-size:19.4297px;line-height:1.25;font-family:Qlassy;-inkscape-font-specification:Qlassy;fill:#ffffff;stroke-width:0.485744"
         transform="translate(21.14102,11.505953)">
        <path
           d="m 38.298134,64.134699 v 0 c 1.720338,0 3.035891,0.325726 3.946658,0.977177 0.917092,0.651452 1.375638,1.587518 1.375638,2.808199 0,1.208032 -0.433247,2.144098 -1.299741,2.808199 -0.866494,0.664101 -2.090338,0.996152 -3.671531,0.996152 h -1.764611 v 5.9105 c -0.0031,0.06596 -0.0035,0.144106 -0.0035,0.212763 l -1.983031,-4.6e-5 v -0.208717 c 0.0074,-4.428666 0.0037,-8.864345 0.0037,-13.295556 v -0.208717 z m 3.254095,3.785376 v 0 c 0,-0.442734 -0.03795,-0.875981 -0.113846,-1.29974 -0.06957,-0.430085 -0.215042,-0.815896 -0.436409,-1.157434 -0.221367,-0.341537 -0.547093,-0.613502 -0.977178,-0.815895 -0.423759,-0.202393 -0.992989,-0.30359 -1.707688,-0.30359 h -1.432561 v 7.172292 h 1.707688 c 0.657777,0 1.182733,-0.107521 1.574869,-0.322563 0.392136,-0.215042 0.686238,-0.496494 0.882306,-0.844357 0.202393,-0.354187 0.335213,-0.743161 0.39846,-1.166921 0.06957,-0.423759 0.104359,-0.844357 0.104359,-1.261792 z"
           id="path37307"
           sodipodi:nodetypes="cscsssccccccccsscscsccssccs"
           style="fill:#ffffff" />
        <path
           d="m 53.439637,77.350311 c -0.246666,-0.297265 -0.433247,-0.721024 -0.559742,-1.271279 -0.126496,-0.550255 -0.189744,-1.268117 -0.189744,-2.153585 0,-0.708375 -0.08538,-1.264955 -0.256153,-1.66974 -0.164444,-0.404785 -0.398461,-0.705212 -0.70205,-0.90128 -0.303589,-0.202393 -0.664101,-0.328888 -1.081536,-0.379487 -0.417435,-0.05692 -0.875981,-0.08538 -1.375638,-0.08538 h -1.574868 v 6.74537 h -0.0026 v 0.208717 H 45.736231 V 77.63493 h -2.06e-4 v -13.29151 0 -0.208717 h 3.67153 c 1.492647,0 2.653243,0.268803 3.481788,0.806408 0.917092,0.607179 1.375638,1.508459 1.375638,2.703841 0,0.96769 -0.35735,1.729825 -1.072049,2.286405 -0.543931,0.42376 -1.261792,0.70205 -2.153585,0.83487 1.163758,0.14547 2.049226,0.480683 2.656404,1.005639 0.777947,0.651451 1.166921,1.666577 1.166921,3.045378 0,0.683075 0.02846,1.24598 0.08538,1.688714 0.06325,0.436409 0.129098,0.659582 0.299868,0.969152 0,0 0.104857,0.140747 0.534572,0.354145 0,0 -1.623525,0.176653 -2.342855,-0.478944 z m -1.252303,-9.705363 v 0 c 0,-0.404785 -0.03162,-0.803246 -0.09487,-1.195382 -0.06325,-0.398461 -0.189742,-0.752648 -0.379486,-1.062562 -0.183419,-0.316239 -0.458546,-0.56923 -0.825383,-0.758973 -0.366837,-0.189743 -0.853844,-0.284615 -1.461022,-0.284615 H 47.69991 v 6.337422 h 2.00179 c 1.66974,0 2.498285,-1.011963 2.485636,-3.03589 z"
           id="path37304"
           sodipodi:nodetypes="csscccsccccccccccscscccscccccsccssccssc"
           style="fill:#ffffff" />
        <path
           d="m 68.068836,64.134699 v 0 h 0.206675 v 0.208717 c 0,0 0.01222,0.682686 0.002,1.442049 v 7.675111 c 0,1.454697 -0.398461,2.583669 -1.195382,3.386916 -0.796921,0.796921 -1.919568,1.195382 -3.367941,1.195382 -1.631791,0 -2.846148,-0.341538 -3.643069,-1.024614 -0.910767,-0.739998 -1.366151,-1.954354 -1.366151,-3.643069 v -9.031775 0 l 0.0033,-0.207213 1.969995,-0.0015 v 0.208717 0 9.031775 c 0,1.498971 0.249828,2.599482 0.749485,3.301532 0.505982,0.752648 1.331365,1.128972 2.476149,1.128972 1.321877,0 2.34649,-0.379486 3.073839,-1.138459 0.727349,-0.758973 1.091023,-1.82786 1.091023,-3.20666 v -9.11716 0 z"
           id="path37301"
           sodipodi:nodetypes="cccccscscsccccccscsssccc"
           style="fill:#ffffff" />
        <path
           d="m 84.121111,64.343416 v 0 0 13.29151 h 0.0012 v 0.208717 h -1.982204 v -0.208717 h -0.0018 V 64.694441 L 77.167024,77.843643 H 76.948819 L 71.977548,64.770339 v 12.864587 h 9.34e-4 v 0.208717 l -0.212209,-2e-6 v -0.208717 0 c -2.83e-4,-7.56e-4 0.0012,-0.129219 0.0026,-1.290252 v -12.001256 0 -0.208717 h 1.935381 l 0.01897,0.02846 4.24076,10.995617 4.17435,-11.024078 h 0.09487 0.01897 v 0 h 1.86897 z"
           id="path37298"
           sodipodi:nodetypes="cccccccccccccccccccccccccccccccc"
           style="fill:#ffffff" />
        <path
           d="m 97.573903,77.634926 v 0 0 l 0.171011,0.208717 h -2.085321 l -0.07893,-0.208717 h 9.34e-4 l -1.650765,-4.449478 h -4.80999 l -1.631791,4.449478 1.45e-4,-2e-6 -0.07958,0.208717 -0.258751,2e-6 v 0 l 0.461521,-1.185895 4.667682,-12.665356 h 0.218205 z m -8.377161,-4.667682 -0.0759,0.218204 h 4.80999 l -2.419224,-6.479729 z"
           id="path37295"
           sodipodi:nodetypes="ccccccccccccccccccccccc"
           style="fill:#ffffff" />
      </g>
      <g
         aria-label="ARQUITETURA"
         id="text24801"
         style="font-weight:300;font-size:4.63042px;line-height:1.25;font-family:Montserrat;-inkscape-font-specification:'Montserrat Light';letter-spacing:3.00038px;fill:#ffffff;stroke-width:0.11576"
         transform="translate(24.508616)">
        <path
           d="m 30.781043,94.402306 1.490995,-3.241295 h 0.236152 l 1.490995,3.241295 h -0.254673 l -1.407648,-3.093121 h 0.101869 l -1.403017,3.093121 z m 0.546389,-0.912193 0.07872,-0.199108 h 1.940146 l 0.07872,0.199108 z"
           id="path37243"
           style="fill:#ffffff" />
        <path
           d="m 37.587628,94.402306 v -3.241295 h 1.162235 q 0.407477,0 0.699194,0.129652 0.291716,0.129652 0.44915,0.375064 0.157435,0.240782 0.157435,0.588064 0,0.33802 -0.157435,0.583433 -0.157434,0.240781 -0.44915,0.375064 -0.291717,0.129651 -0.699194,0.129651 H 37.71728 l 0.106499,-0.11113 v 1.171497 z m 2.250384,0 -0.842736,-1.176127 h 0.268564 l 0.842736,1.176127 z M 37.823779,93.244701 37.71728,93.13357 h 1.032583 q 0.523238,0 0.791802,-0.231521 0.273195,-0.231521 0.273195,-0.648258 0,-0.421369 -0.273195,-0.648259 -0.268564,-0.231521 -0.791802,-0.231521 H 37.71728 l 0.106499,-0.115761 z"
           id="path37245"
           style="fill:#ffffff" />
        <path
           d="m 45.297142,94.425458 q -0.361173,0 -0.671411,-0.120391 -0.305608,-0.125022 -0.537129,-0.347282 -0.226891,-0.22689 -0.351912,-0.523237 -0.125021,-0.300978 -0.125021,-0.652889 0,-0.351912 0.125021,-0.648259 0.125021,-0.300978 0.351912,-0.523238 0.231521,-0.22689 0.537129,-0.347281 0.310238,-0.125022 0.671411,-0.125022 0.361172,0 0.66678,0.125022 0.310238,0.120391 0.537129,0.342651 0.22689,0.22226 0.351912,0.523237 0.129652,0.296347 0.129652,0.65289 0,0.356542 -0.129652,0.657519 -0.125022,0.296347 -0.351912,0.518607 -0.226891,0.22226 -0.537129,0.347282 -0.305608,0.120391 -0.66678,0.120391 z m 1.064996,0.592693 q -0.138912,0 -0.273194,-0.03704 -0.129652,-0.03704 -0.268565,-0.11576 -0.134282,-0.07409 -0.277825,-0.199108 -0.138913,-0.120391 -0.300977,-0.291717 l 0.268564,-0.06483 q 0.148173,0.171326 0.291716,0.287086 0.148174,0.115761 0.287087,0.166695 0.138912,0.05556 0.273194,0.05556 0.379695,0 0.638998,-0.310238 l 0.125022,0.143543 q -0.296347,0.365803 -0.76402,0.365803 z m -1.064996,-0.810323 q 0.310238,0 0.574172,-0.1065 0.263934,-0.106499 0.458411,-0.300977 0.194478,-0.194478 0.300978,-0.453781 0.11113,-0.259304 0.11113,-0.564911 0,-0.305608 -0.11113,-0.564912 -0.1065,-0.259303 -0.300978,-0.453781 -0.194477,-0.194478 -0.458411,-0.300977 -0.263934,-0.1065 -0.574172,-0.1065 -0.310239,0 -0.574172,0.1065 -0.263934,0.106499 -0.463042,0.300977 -0.194478,0.194478 -0.305608,0.453781 -0.1065,0.259304 -0.1065,0.564912 0,0.305607 0.1065,0.564911 0.11113,0.259303 0.305608,0.453781 0.199108,0.194478 0.463042,0.300977 0.263933,0.1065 0.574172,0.1065 z"
           id="path37247"
           style="fill:#ffffff" />
        <path
           d="m 52.071312,94.425458 q -0.601955,0 -0.949237,-0.351912 -0.347281,-0.351912 -0.347281,-1.046475 v -1.86606 h 0.236151 v 1.856799 q 0,0.606585 0.277826,0.898301 0.277825,0.291717 0.787171,0.291717 0.504716,0 0.782541,-0.291717 0.277825,-0.291716 0.277825,-0.898301 v -1.856799 h 0.236152 v 1.86606 q 0,0.694563 -0.347282,1.046475 -0.347281,0.351912 -0.953866,0.351912 z"
           id="path37249"
           style="fill:#ffffff" />
        <path
           d="m 57.474877,94.402306 v -3.241295 h 0.236151 v 3.241295 z"
           id="path37251"
           style="fill:#ffffff" />
        <path
           d="m 62.461707,94.402306 v -3.028295 h -1.166866 v -0.213 h 2.569883 v 0.213 h -1.166865 v 3.028295 z"
           id="path37253"
           style="fill:#ffffff" />
        <path
           d="m 67.656903,92.652007 h 1.75493 v 0.208369 h -1.75493 z m 0.02778,1.537299 h 2.000341 v 0.213 h -2.236493 v -3.241295 h 2.167037 v 0.213 h -1.930885 z"
           id="path37255"
           style="fill:#ffffff" />
        <path
           d="m 74.167148,94.402306 v -3.028295 h -1.166866 v -0.213 h 2.569883 v 0.213 h -1.166866 v 3.028295 z"
           id="path37257"
           style="fill:#ffffff" />
        <path
           d="m 80.357883,94.425458 q -0.601955,0 -0.949236,-0.351912 -0.347282,-0.351912 -0.347282,-1.046475 v -1.86606 h 0.236152 v 1.856799 q 0,0.606585 0.277825,0.898301 0.277825,0.291717 0.787172,0.291717 0.504715,0 0.782541,-0.291717 0.277825,-0.291716 0.277825,-0.898301 v -1.856799 h 0.236151 v 1.86606 q 0,0.694563 -0.347281,1.046475 -0.347282,0.351912 -0.953867,0.351912 z"
           id="path37259"
           style="fill:#ffffff" />
        <path
           d="m 85.76145,94.402306 v -3.241295 h 1.162236 q 0.407477,0 0.699193,0.129652 0.291717,0.129652 0.449151,0.375064 0.157434,0.240782 0.157434,0.588064 0,0.33802 -0.157434,0.583433 -0.157434,0.240781 -0.449151,0.375064 -0.291716,0.129651 -0.699193,0.129651 h -1.032584 l 0.1065,-0.11113 v 1.171497 z m 2.250384,0 -0.842736,-1.176127 h 0.268564 l 0.842737,1.176127 z m -2.014232,-1.157605 -0.1065,-0.111131 h 1.032584 q 0.523237,0 0.791802,-0.231521 0.273194,-0.231521 0.273194,-0.648258 0,-0.421369 -0.273194,-0.648259 -0.268565,-0.231521 -0.791802,-0.231521 h -1.032584 l 0.1065,-0.115761 z"
           id="path37261"
           style="fill:#ffffff" />
        <path
           d="m 91.553969,94.402306 1.490995,-3.241295 h 0.236152 l 1.490995,3.241295 H 94.517438 L 93.10979,91.309185 h 0.10187 l -1.403018,3.093121 z m 0.54639,-0.912193 0.07872,-0.199108 h 1.940146 l 0.07872,0.199108 z"
           id="path37263"
           style="fill:#ffffff" />
      </g>
    </g>
  </g>
</svg>
